<svg xmlns="http://www.w3.org/2000/svg" xmlns:xlink="http://www.w3.org/1999/xlink" width="2560" zoomAndPan="magnify" viewBox="0 0 1920 1079.999946" height="1440" preserveAspectRatio="xMidYMid meet" version="1.0"><defs><clipPath id="e5cd5690ba"><path d="M 60 154 L 1920 154 L 1920 810.035156 L 60 810.035156 Z M 60 154 " clip-rule="nonzero"/></clipPath><clipPath id="ad3ace15d2"><path d="M 618 368 L 1920 368 L 1920 1024.089844 L 618 1024.089844 Z M 618 368 " clip-rule="nonzero"/></clipPath><clipPath id="723546fbbf"><path d="M 0 368 L 1128 368 L 1128 1024.089844 L 0 1024.089844 Z M 0 368 " clip-rule="nonzero"/></clipPath></defs><rect x="-192" width="2304" fill="#ffffff" y="-107.999995" height="1295.999935" fill-opacity="1"/><rect x="-192" width="2304" fill="#dff2eb" y="-107.999995" height="1295.999935" fill-opacity="1"/><g clip-path="url(#e5cd5690ba)"><path fill="#b9e5e8" d="M 60.683594 810.300781 C 76.859375 771.167969 125.777344 745.054688 151.296875 712.792969 C 194.503906 658.214844 215.980469 588.109375 262.566406 534.519531 C 278.511719 516.148438 295.707031 493.339844 316.832031 480.773438 C 339.917969 467.035156 372.757812 470.792969 393.414062 452.460938 C 423.355469 425.855469 460.820312 347.589844 494.015625 308.953125 C 521.121094 277.414062 590.96875 147.871094 643.28125 155.007812 C 682.285156 160.320312 723.796875 239.417969 761.273438 262.570312 C 787.707031 278.894531 831.148438 226.667969 870.652344 258.132812 C 896.050781 278.398438 907.5625 314.53125 929.234375 338.710938 C 956.847656 369.527344 1023.402344 452.765625 1060.070312 469.386719 C 1087.976562 482.027344 1124.964844 480.507812 1150.667969 497.890625 C 1164.945312 507.53125 1175.824219 524.382812 1192.859375 529.355469 C 1230.277344 540.25 1274.671875 528.140625 1313.1875 531.671875 C 1322.007812 532.46875 1345.667969 545.261719 1352.8125 536.910156 C 1381.296875 503.585938 1428.550781 388.46875 1486.898438 397.5 C 1503.207031 400.042969 1529.140625 438.683594 1542.566406 450.03125 C 1569.152344 472.5 1599.144531 478.839844 1622.539062 507.796875 C 1647.476562 538.695312 1654.121094 579.417969 1683.628906 607.921875 C 1734.5625 657.152344 1773.34375 635.820312 1828.34375 663.867188 C 1854.730469 677.34375 1873.582031 711.160156 1893.59375 732.945312 C 1918.664062 760.234375 1955.976562 778.152344 1978.0625 808.136719 Z M 60.683594 810.300781 " fill-opacity="1" fill-rule="evenodd"/></g><g clip-path="url(#ad3ace15d2)"><path fill="#7ab2d3" d="M 618.472656 1024.351562 C 634.648438 985.222656 683.566406 959.109375 709.085938 926.847656 C 752.292969 872.269531 773.773438 802.164062 820.359375 748.574219 C 836.300781 730.203125 853.496094 707.390625 874.621094 694.828125 C 897.707031 681.089844 930.546875 684.847656 951.203125 666.515625 C 981.144531 639.90625 1018.609375 561.644531 1051.804688 523.007812 C 1078.910156 491.46875 1148.757812 361.925781 1201.070312 369.0625 C 1240.074219 374.375 1281.585938 453.472656 1319.0625 476.625 C 1345.496094 492.945312 1388.9375 440.722656 1428.441406 472.183594 C 1453.839844 492.453125 1465.351562 528.585938 1487.023438 552.765625 C 1514.636719 583.582031 1581.191406 666.816406 1617.859375 683.441406 C 1645.765625 696.082031 1682.753906 694.5625 1708.457031 711.945312 C 1722.734375 721.585938 1733.613281 738.4375 1750.648438 743.410156 C 1788.066406 754.304688 1832.460938 742.195312 1870.976562 745.726562 C 1879.800781 746.523438 1903.457031 759.3125 1910.601562 750.964844 C 1939.085938 717.640625 1986.339844 602.523438 2044.6875 611.554688 C 2060.996094 614.097656 2086.929688 652.738281 2100.355469 664.085938 C 2126.941406 686.554688 2156.933594 692.894531 2180.328125 721.851562 C 2205.265625 752.746094 2211.910156 793.472656 2241.417969 821.976562 C 2292.351562 871.203125 2331.132812 849.875 2386.132812 877.921875 C 2412.519531 891.398438 2431.371094 925.214844 2451.382812 947 C 2476.453125 974.289062 2513.765625 992.203125 2535.851562 1022.191406 Z M 618.472656 1024.351562 " fill-opacity="1" fill-rule="evenodd"/></g><g clip-path="url(#723546fbbf)"><path fill="#7ab2d3" d="M -790.0625 1024.351562 C -773.886719 985.222656 -724.96875 959.109375 -699.449219 926.847656 C -656.242188 872.269531 -634.765625 802.164062 -588.179688 748.574219 C -572.234375 730.203125 -555.039062 707.390625 -533.914062 694.828125 C -510.832031 681.089844 -477.988281 684.847656 -457.332031 666.515625 C -427.390625 639.90625 -389.925781 561.644531 -356.730469 523.007812 C -329.625 491.46875 -259.777344 361.925781 -207.464844 369.0625 C -168.460938 374.375 -126.949219 453.472656 -89.472656 476.625 C -63.039062 492.945312 -19.597656 440.722656 19.902344 472.183594 C 45.304688 492.453125 56.816406 528.585938 78.488281 552.765625 C 106.097656 583.582031 172.65625 666.816406 209.324219 683.441406 C 237.230469 696.082031 274.21875 694.5625 299.917969 711.945312 C 314.199219 721.585938 325.078125 738.4375 342.113281 743.410156 C 379.53125 754.304688 423.925781 742.195312 462.441406 745.726562 C 471.261719 746.523438 494.921875 759.3125 502.066406 750.964844 C 530.546875 717.640625 577.800781 602.523438 636.152344 611.554688 C 652.460938 614.097656 678.394531 652.738281 691.820312 664.085938 C 718.40625 686.554688 748.398438 692.894531 771.792969 721.851562 C 796.730469 752.746094 803.375 793.472656 832.882812 821.976562 C 883.816406 871.203125 922.597656 849.875 977.597656 877.921875 C 1003.984375 891.398438 1022.835938 925.214844 1042.847656 947 C 1067.917969 974.289062 1105.230469 992.203125 1127.316406 1022.191406 Z M -790.0625 1024.351562 " fill-opacity="1" fill-rule="evenodd"/></g><path fill="#4a628a" d="M -282.402344 1289.0625 C -266.226562 1249.929688 -217.304688 1223.816406 -191.789062 1191.554688 C -148.578125 1136.976562 -127.101562 1066.875 -80.515625 1013.28125 C -64.570312 994.914062 -47.378906 972.101562 -26.25 959.539062 C -3.167969 945.796875 29.675781 949.554688 50.328125 931.222656 C 80.273438 904.617188 117.738281 826.355469 150.933594 787.714844 C 178.035156 756.175781 247.886719 626.636719 300.199219 633.773438 C 339.199219 639.085938 380.710938 718.183594 418.1875 741.335938 C 444.625 757.65625 488.0625 705.429688 527.566406 736.894531 C 552.964844 757.164062 564.476562 793.296875 586.148438 817.472656 C 613.761719 848.292969 680.320312 931.527344 716.988281 948.152344 C 744.894531 960.789062 781.878906 959.273438 807.582031 976.65625 C 821.859375 986.296875 832.738281 1003.148438 849.777344 1008.121094 C 887.191406 1019.011719 931.589844 1006.90625 970.105469 1010.4375 C 978.925781 1011.234375 1002.582031 1024.023438 1009.730469 1015.671875 C 1038.210938 982.347656 1085.464844 867.230469 1143.8125 876.265625 C 1160.121094 878.808594 1186.058594 917.445312 1199.480469 928.792969 C 1226.070312 951.265625 1256.0625 957.601562 1279.457031 986.5625 C 1304.394531 1017.457031 1311.039062 1058.183594 1340.542969 1086.6875 C 1391.480469 1135.914062 1430.257812 1114.582031 1485.257812 1142.632812 C 1511.644531 1156.105469 1530.496094 1189.925781 1550.511719 1211.710938 C 1575.582031 1239 1612.894531 1256.914062 1634.980469 1286.898438 Z M -282.402344 1289.0625 " fill-opacity="1" fill-rule="evenodd"/><path fill="#4a628a" d="M 2569.632812 1289.0625 C 2553.453125 1249.929688 2504.535156 1223.816406 2479.015625 1191.554688 C 2435.808594 1136.976562 2414.332031 1066.875 2367.746094 1013.28125 C 2351.800781 994.914062 2334.605469 972.101562 2313.480469 959.539062 C 2290.398438 945.796875 2257.554688 949.554688 2236.898438 931.222656 C 2206.957031 904.617188 2169.492188 826.355469 2136.296875 787.714844 C 2109.191406 756.175781 2039.34375 626.636719 1987.03125 633.773438 C 1948.027344 639.085938 1906.519531 718.183594 1869.042969 741.335938 C 1842.605469 757.65625 1799.167969 705.429688 1759.664062 736.894531 C 1734.261719 757.164062 1722.75 793.296875 1701.078125 817.472656 C 1673.46875 848.292969 1606.910156 931.527344 1570.242188 948.152344 C 1542.335938 960.789062 1505.351562 959.273438 1479.648438 976.65625 C 1465.367188 986.296875 1454.492188 1003.148438 1437.453125 1008.121094 C 1400.035156 1019.011719 1355.640625 1006.90625 1317.125 1010.4375 C 1308.304688 1011.234375 1284.644531 1024.023438 1277.5 1015.671875 C 1249.019531 982.347656 1201.765625 867.230469 1143.417969 876.265625 C 1127.105469 878.808594 1101.171875 917.445312 1087.746094 928.792969 C 1061.160156 951.265625 1031.167969 957.601562 1007.773438 986.5625 C 982.835938 1017.457031 976.191406 1058.183594 946.683594 1086.6875 C 895.75 1135.914062 856.972656 1114.582031 801.96875 1142.632812 C 775.585938 1156.105469 756.730469 1189.925781 736.71875 1211.710938 C 711.648438 1239 674.335938 1256.914062 652.25 1286.898438 Z M 2569.632812 1289.0625 " fill-opacity="1" fill-rule="evenodd"/></svg>